<svg xmlns="http://www.w3.org/2000/svg" width="770.847" height="176.022" viewBox="0 0 770.847 176.022">
  <path id="Path_487" data-name="Path 487" d="M50.589,0H25.41V-172.326H50.589V-43.659l87.549-128.667H168.4L111.8-91.245l30.954,46.431q8.085,12.012,14.668,15.939t12.128,3.465l7.161-.231V0h-9.009a90.337,90.337,0,0,1-11.435-.693,33.385,33.385,0,0,1-10.741-3.35,44,44,0,0,1-10.857-8.085,80.917,80.917,0,0,1-11.55-15.131L97.02-69.069ZM296.6,3.7a83.432,83.432,0,0,1-22.984-3,52.129,52.129,0,0,1-18.249-9.125A40.849,40.849,0,0,1,243.359-24.14q-4.273-9.586-4.273-22.753v-72.765h23.793v72.765A29.438,29.438,0,0,0,265.3-34.188a20.542,20.542,0,0,0,6.93,8.2A28.707,28.707,0,0,0,282.975-21.6a69.626,69.626,0,0,0,13.86,1.271A69.626,69.626,0,0,0,310.7-21.6a28.707,28.707,0,0,0,10.742-4.389,20.542,20.542,0,0,0,6.93-8.2,29.439,29.439,0,0,0,2.426-12.705v-72.765h23.793v72.765q0,13.167-4.273,22.753A40.848,40.848,0,0,1,338.3-8.432,52.129,52.129,0,0,1,320.051.693a83.432,83.432,0,0,1-22.984,3ZM428.736,0V-119.658H452.3V0Zm90.552,0V-24.024l63.063-71.841H521.6v-23.793h92.169v23.793L550.7-24.024h67.683V0ZM738.276,3.7a83.432,83.432,0,0,1-22.984-3,52.129,52.129,0,0,1-18.249-9.125A40.849,40.849,0,0,1,685.031-24.14q-4.273-9.586-4.273-22.753v-72.765H704.55v72.765a29.438,29.438,0,0,0,2.425,12.705,20.542,20.542,0,0,0,6.93,8.2A28.707,28.707,0,0,0,724.647-21.6a69.627,69.627,0,0,0,13.86,1.271,69.627,69.627,0,0,0,13.86-1.271,28.707,28.707,0,0,0,10.741-4.389,20.542,20.542,0,0,0,6.93-8.2,29.438,29.438,0,0,0,2.425-12.705v-72.765h23.793v72.765q0,13.167-4.274,22.753A40.849,40.849,0,0,1,779.972-8.432,52.129,52.129,0,0,1,761.723.693a83.432,83.432,0,0,1-22.984,3Z" transform="translate(-25.41 172.326)" fill="#222"/>
</svg>
